<?xml version="1.0" standalone="no"?>
<!DOCTYPE svg PUBLIC "-//W3C//DTD SVG 20010904//EN"
 "http://www.w3.org/TR/2001/REC-SVG-20010904/DTD/svg10.dtd">
<svg version="1.0" xmlns="http://www.w3.org/2000/svg"
 width="368.000000pt" height="368.000000pt" viewBox="0 0 368.000000 368.000000"
 preserveAspectRatio="xMidYMid meet">
<metadata>
Created by potrace 1.11, written by Peter Selinger 2001-2013
</metadata>
<g transform="translate(0.000000,368.000000) scale(0.100000,-0.100000)"
fill="#000000" stroke="none">
<path d="M1640 3670 c-25 -4 -63 -10 -85 -13 -68 -10 -218 -44 -265 -62 -25
-9 -49 -17 -55 -18 -68 -17 -256 -106 -360 -170 -214 -133 -410 -320 -559
-534 -20 -29 -36 -56 -36 -60 0 -3 -6 -14 -14 -22 -21 -23 -119 -224 -149
-306 -29 -78 -64 -194 -72 -240 -3 -16 -13 -66 -21 -110 -10 -48 -17 -149 -19
-255 -3 -173 1 -218 31 -407 3 -18 14 -63 25 -100 11 -38 22 -78 24 -90 8 -37
91 -235 120 -288 15 -27 44 -77 63 -110 199 -335 541 -621 912 -762 233 -89
427 -122 690 -118 167 2 195 5 330 32 112 21 112 21 170 41 30 11 58 20 62 21
24 5 126 46 191 76 318 145 649 449 810 745 11 19 29 53 41 75 65 118 147 350
171 485 25 134 32 233 30 385 -2 94 -5 186 -9 205 -3 19 -8 55 -11 79 -3 25
-8 48 -10 51 -2 4 -7 21 -10 39 -3 17 -12 55 -20 84 -126 466 -438 870 -855
1108 -206 118 -390 185 -621 225 -101 17 -421 26 -499 14z"/>
</g>
</svg>
